# xmcd
#
# Track frame offsets:
#	150
#	13072
#	25428
#	39595
#	53926
#	68965
#	84643
#	98850
#	114974
#	128963
#	140237
#	154832
#	170599
#	185050
#	200237
#	214277
#	229867
#	242116
#
# Disc length: 3429 seconds
#
# Revision: 0
# Processed by: cddbd v1.5.2PL0 Copyright (c) Steve Scherf et al.
# Submitted via: audiograbber 1.83.01
#
DISCID=150d6312
DTITLE=Asleep At The Wheel - Tribute To Bob Wills
DYEAR=1993
DGENRE=Western Swing
TTITLE0=Red Wing - (TRUE instrumental, with Chet Atkins/Vince Gill/Marty Stuart
TTITLE0=)
TTITLE1=Big Balls in Cowtown - (with George Strait)
TTITLE2=Yearning (Just For You) - (with Vince Gill)
TTITLE3=Bring It on Down to My House
TTITLE4=Deep Water - (with Garth Brooks)
TTITLE5=Blues For Dixie - (with Lyle Lovett)
TTITLE6=Billy Dale - (with Dolly Parton)
TTITLE7=Across the Alley From the Alamo - (with Johnny Rodriguez)
TTITLE8=Old Fashioned Love - (with Suzy Bogguss)
TTITLE9=Ida Red - (with Jody Nix/Huey Lewis/Willie Nelson)
TTITLE10=Misery - (with Marty Stuart)
TTITLE11=I Wonder If You Feel the Way I Do - (with Merle Haggard)
TTITLE12=Hubbin' It - (with Huey Lewis)
TTITLE13=Corine, Corina - (with Brooks and Dunn)
TTITLE14=Still Water Runs Deepest - (with Willie Nelson)
TTITLE15=All Night Long - (with Leon Rausch)
TTITLE16=Got a Letter From My Kid Today
TTITLE17=Dusty Skies - (with Riders In The Sky)
EXTD=
EXTT0=
EXTT1=
EXTT2=
EXTT3=
EXTT4=
EXTT5=
EXTT6=
EXTT7=
EXTT8=
EXTT9=
EXTT10=
EXTT11=
EXTT12=
EXTT13=
EXTT14=
EXTT15=
EXTT16=
EXTT17=
PLAYORDER=
